<svg width="228" height="256" viewBox="0 0 228 256" fill="none" xmlns="http://www.w3.org/2000/svg">
<path d="M210.619 12.7323C214.79 12.7323 218.789 14.3889 221.738 17.3378C224.687 20.2867 226.344 24.2863 226.344 28.4566V177.59C226.344 181.76 224.687 185.76 221.738 188.709C218.789 191.658 214.79 193.314 210.619 193.314H17.1324C12.962 193.314 8.96251 191.658 6.01361 188.709C3.06472 185.76 1.40805 181.76 1.40805 177.59V28.4566C1.40805 24.2863 3.06472 20.2867 6.01361 17.3378C8.96251 14.3889 12.962 12.7323 17.1324 12.7323H210.619ZM210.619 11.3242H17.1324C12.59 11.3289 8.23505 13.1354 5.02311 16.3473C1.81117 19.5593 0.00465932 23.9143 0 28.4566V177.59C0.00465932 182.132 1.81117 186.487 5.02311 189.699C8.23505 192.911 12.59 194.718 17.1324 194.722H210.619C215.162 194.718 219.517 192.911 222.729 189.699C225.94 186.487 227.747 182.132 227.752 177.59V28.4566C227.747 23.9143 225.94 19.5593 222.729 16.3473C219.517 13.1354 215.162 11.3289 210.619 11.3242V11.3242Z" fill="white"/>
<path d="M210.619 12.7322H17.1324C8.44811 12.7322 1.40808 19.7722 1.40808 28.4565V177.59C1.40808 186.274 8.44811 193.314 17.1324 193.314H210.619C219.304 193.314 226.344 186.274 226.344 177.59V28.4565C226.344 19.7722 219.304 12.7322 210.619 12.7322Z" fill="#F5EBDD"/>
<path d="M79.3787 125.2L80.7867 135.761" stroke="#F5EBDC" stroke-width="4" stroke-miterlimit="10" stroke-linecap="round"/>
<path d="M196.423 112.704C196.423 112.704 212.263 94.047 194.663 78.2064C183.905 68.5261 170.983 71.2225 170.983 71.2225C171.472 65.3299 172.454 50.1018 159.687 40.7735C146.919 31.4452 130.709 36.3558 124.816 43.7198C118.924 51.0839 120.399 64.8406 118.434 74.6617C116.47 84.4828 117.942 90.8542 123.834 94.3075C129.727 97.7607 136.605 95.2896 136.605 95.2896L135.13 104.129C135.13 104.129 123.556 105.663 114.052 109.887C103.28 114.675 79.2027 127.84 79.2027 127.84C78.4987 125.376 74.6265 85.2467 72.8665 72.2222C71.5253 62.299 66.8823 50.0455 63.3622 52.5096C59.9477 54.8997 61.2501 62.7179 61.2501 62.7179L43.2975 81.3745C43.2975 81.3745 34.4233 145.346 55.6179 162.689C71.1064 175.362 111.588 154.945 111.588 154.945L106.308 193.314H154.611C154.611 193.314 145.553 195.722 126.724 204.227C104.9 214.083 92.2271 241.54 93.6352 243.652C95.0432 245.764 99.2674 244.004 104.9 236.964C99.9714 255.268 104.9 253.86 108.068 253.508C111.289 258.141 115.46 252.452 115.46 252.452C115.46 252.452 121.092 257.732 129.892 233.092C133.89 231.207 137.571 228.713 140.805 225.699C140.805 225.699 196.775 222.179 207.687 202.467C218.599 182.754 211.207 131.36 196.423 112.704Z" fill="#A15842"/>
<path d="M123.257 70.2156C124.064 70.2156 124.718 69.5616 124.718 68.7548C124.718 67.948 124.064 67.2939 123.257 67.2939C122.45 67.2939 121.796 67.948 121.796 68.7548C121.796 69.5616 122.45 70.2156 123.257 70.2156Z" fill="#30242A"/>
<path d="M144.723 210.51L145.627 212.534L151.048 224.682C167.734 222.62 199.721 216.861 207.687 202.467C218.599 182.754 211.207 131.361 196.423 112.704C184.102 126.253 165.051 122.56 157.413 111.296C156.005 111.646 154.571 111.881 153.125 112C150.87 112.208 148.598 112.118 146.367 111.732C143.693 111.286 141.161 110.219 138.974 108.617C136.19 106.523 135.173 104.256 135.173 104.256L134.701 104.189C132.54 104.509 122.483 106.139 114.052 109.888C103.28 114.675 79.2027 127.84 79.2027 127.84C78.8859 126.735 77.9319 118.03 76.816 107.6L63.1439 112.88L61.6619 113.454L54.59 116.192L41.731 121.17C42.6533 137.742 46.1136 154.91 55.6179 162.69C71.1064 175.362 111.588 154.945 111.588 154.945L106.308 193.315H154.611C154.611 193.315 149.658 194.635 139.474 198.753L141.819 204.002L144.723 210.51Z" fill="#FFB494"/>
<path d="M78.1466 147.201C73.8521 147.201 69.7335 148.907 66.6968 151.943C63.6601 154.98 61.9541 159.099 61.9541 163.393C61.9542 164.235 62.0189 165.075 62.1477 165.907C71.3775 168.371 84.064 165.477 94.2794 162.034C93.9388 157.99 92.0916 154.221 89.1038 151.474C86.1161 148.726 82.2055 147.201 78.1466 147.201V147.201Z" fill="#FF7235"/>
<path d="M62.3061 117.984C62.3054 116.454 62.0885 114.933 61.6619 113.464L54.59 116.203L41.731 121.18C41.9669 125.429 42.3717 129.716 43.0018 133.874C45.3474 134.333 47.7656 134.267 50.0828 133.681C52.4001 133.095 54.5588 132.004 56.4042 130.485C58.2496 128.966 59.7359 127.057 60.7563 124.896C61.7767 122.734 62.306 120.374 62.3061 117.984V117.984Z" fill="#FF7235"/>
<path d="M109.124 129.248C111.822 129.247 114.477 128.571 116.847 127.283C119.218 125.995 121.229 124.134 122.698 121.871C124.167 119.608 125.047 117.014 125.258 114.324C125.47 111.634 125.006 108.934 123.908 106.469C120.541 107.359 117.247 108.502 114.052 109.888C109.096 112.091 101.32 116.069 94.3674 119.723C95.6501 122.562 97.7245 124.97 100.342 126.66C102.959 128.35 106.008 129.248 109.124 129.248Z" fill="#FF7235"/>
<path d="M148.549 166.21C157.492 166.21 164.742 158.96 164.742 150.017C164.742 141.074 157.492 133.825 148.549 133.825C139.606 133.825 132.356 141.074 132.356 150.017C132.356 158.96 139.606 166.21 148.549 166.21Z" fill="#FF7235"/>
<path d="M116.868 175.714C113.885 175.713 110.96 176.541 108.42 178.104L106.308 193.314H132.994C133.036 192.85 133.061 192.382 133.061 191.906C133.061 187.612 131.354 183.493 128.318 180.457C125.281 177.42 121.162 175.714 116.868 175.714Z" fill="#FF7235"/>
<path d="M174.978 121.286C174.978 121.592 174.95 121.898 174.95 122.208C174.951 125.8 176.147 129.289 178.348 132.127C180.55 134.965 183.633 136.99 187.111 137.885C190.59 138.779 194.267 138.491 197.564 137.066C200.862 135.642 203.592 133.161 205.325 130.016C202.836 123.035 199.827 116.991 196.423 112.704C190.21 119.536 182.286 121.983 174.978 121.286Z" fill="#FF7235"/>
<path d="M190.086 189.794C190.087 193.896 191.645 197.844 194.444 200.841C197.243 203.839 201.075 205.663 205.166 205.945C206.138 204.887 206.984 203.72 207.687 202.467C211.277 195.983 212.886 186.067 212.9 175.01C210.434 173.905 207.73 173.435 205.035 173.642C202.341 173.85 199.741 174.728 197.473 176.198C195.205 177.668 193.341 179.682 192.05 182.057C190.76 184.432 190.085 187.092 190.086 189.794V189.794Z" fill="#FF7235"/>
<path d="M155.941 205.986C151.757 205.982 147.734 207.604 144.723 210.51L145.627 212.534L151.048 224.682C158.118 223.823 165.14 222.608 172.088 221.042C171.8 216.955 169.974 213.13 166.978 210.336C163.982 207.542 160.038 205.988 155.941 205.986V205.986Z" fill="#FF7235"/>
<path d="M183.222 183.282C173.76 186.507 161 190.428 153.125 192.963" stroke="#F5EBDC" stroke-width="4" stroke-miterlimit="10" stroke-linecap="round"/>
<path d="M173.193 149.066L176.534 185.394" stroke="#F5EBDC" stroke-width="4" stroke-miterlimit="10" stroke-linecap="round"/>
<path d="M103.953 237.886C105.107 234.32 107.568 226.995 109.729 222.31" stroke="#30242A" stroke-width="4" stroke-miterlimit="10" stroke-linecap="round"/>
<path d="M116.604 225.256C111.697 235.816 108.817 247.855 107.751 252.847" stroke="#30242A" stroke-width="4" stroke-miterlimit="10" stroke-linecap="round"/>
<path d="M123.479 228.691C120.311 235.999 117.537 245.975 115.981 252.114" stroke="#30242A" stroke-width="4" stroke-miterlimit="10" stroke-linecap="round"/>
<path d="M112.725 142.431L110.81 155.209" stroke="#F5EBDC" stroke-width="4" stroke-miterlimit="10" stroke-linecap="round"/>
<path d="M194.663 78.2064C183.905 68.5261 170.983 71.2225 170.983 71.2225C171.472 65.3299 172.454 50.1018 159.687 40.7735C146.919 31.4452 130.709 36.3558 124.816 43.7198C122.416 46.7225 121.236 50.7882 120.55 55.213C124.471 55.8748 130.22 54.5266 130.22 54.5266C138.077 63.3656 146.412 65.3299 146.412 65.3299C151.816 59.4372 161.637 59.4372 163.112 67.7939C164.742 77.0342 153.287 79.5793 153.287 79.5793C153.287 79.5793 150.858 92.748 154.871 106.022C155.442 107.9 156.294 109.68 157.399 111.303C165.037 122.567 184.092 126.263 196.408 112.711C197.018 111.96 197.583 111.175 198.102 110.359C201.668 104.85 208.5 90.6606 194.663 78.2064Z" fill="#30242A"/>
<path d="M136.552 95.9129C138.829 95.2463 141.023 94.3253 143.093 93.1672" stroke="#30242A" stroke-width="4" stroke-miterlimit="10" stroke-linecap="round"/>
<path d="M171.528 71.1206C171.261 73.8065 170.902 77.1506 170.55 79.7907" stroke="black" stroke-width="4" stroke-miterlimit="10" stroke-linecap="round"/>
<path d="M151.851 71.6766L156.233 69.2407" stroke="#30242A" stroke-width="4" stroke-miterlimit="10" stroke-linecap="round"/>
<path d="M126.943 83.1027C127.749 83.606 130.765 83.9968 131.99 81.677" stroke="#30242A" stroke-width="4" stroke-miterlimit="10" stroke-linecap="round"/>
<path d="M134.877 72.1519C135.684 72.1519 136.338 71.4979 136.338 70.6911C136.338 69.8843 135.684 69.2302 134.877 69.2302C134.07 69.2302 133.416 69.8843 133.416 70.6911C133.416 71.4979 134.07 72.1519 134.877 72.1519Z" fill="#30242A"/>
<path d="M126.763 74.2502C126.538 75.2218 126.351 76.2813 126.506 76.6439C126.716 77.0809 127.069 77.4335 127.506 77.6436" stroke="#30242A" stroke-width="4" stroke-miterlimit="10" stroke-linecap="round"/>
<path d="M126.183 70.1207C127.061 66.3329 125.009 62.6217 121.6 61.8316C118.191 61.0414 114.715 63.4715 113.837 67.2593C112.96 71.0471 115.011 74.7582 118.42 75.5484C121.829 76.3386 125.305 73.9085 126.183 70.1207Z" stroke="black" stroke-width="4" stroke-miterlimit="10" stroke-linecap="round"/>
<path d="M141.673 72.5834C142.551 68.7956 140.499 65.0844 137.09 64.2942C133.681 63.5041 130.206 65.9341 129.328 69.7219C128.45 73.5097 130.501 77.2209 133.91 78.011C137.32 78.8012 140.795 76.3712 141.673 72.5834Z" stroke="black" stroke-width="4" stroke-miterlimit="10" stroke-linecap="round"/>
<path d="M126.548 69.582L129.012 69.934" stroke="black" stroke-width="4" stroke-miterlimit="10" stroke-linecap="round"/>
<path d="M56.8499 64.6538C56.8499 64.6538 63.5381 70.286 64.2422 71.694C64.2422 71.694 53.3298 82.9584 61.7781 96.6869" stroke="#30242A" stroke-width="4" stroke-miterlimit="10" stroke-linecap="round"/>
<path d="M92.6937 28.1881C93.5025 26.8661 93.0864 25.1388 91.7644 24.3301C90.4424 23.5213 88.7151 23.9374 87.9064 25.2594L34.585 112.419C33.7763 113.741 34.1923 115.469 35.5143 116.277C36.8363 117.086 38.5636 116.67 39.3724 115.348L92.6937 28.1881Z" fill="#30242A"/>
<path d="M97.5389 5.54064L103.601 0.689913C104.095 0.293246 104.699 0.0577781 105.332 0.0152753C105.964 -0.0272275 106.594 0.125281 107.137 0.452228C107.68 0.779176 108.11 1.26483 108.368 1.84364C108.626 2.42244 108.701 3.06656 108.582 3.68905L107.128 11.3242C107.013 11.9257 107.079 12.5477 107.318 13.1115C107.557 13.6754 107.957 14.1559 108.469 14.4923L114.953 18.7587C115.483 19.1063 115.894 19.6081 116.129 20.1964C116.365 20.7846 116.415 21.4311 116.272 22.0485C116.129 22.666 115.8 23.2246 115.329 23.6491C114.858 24.0737 114.269 24.3436 113.64 24.4226L105.956 25.4047C105.348 25.4816 104.776 25.737 104.313 26.1386C103.85 26.5402 103.516 27.07 103.354 27.6611L101.302 35.1448C101.134 35.7553 100.783 36.2997 100.296 36.7047C99.8089 37.1097 99.2097 37.356 98.5788 37.4104C97.9478 37.4649 97.3154 37.3248 96.7664 37.0092C96.2174 36.6935 95.7782 36.2173 95.5078 35.6447L92.2025 28.6044C91.9393 28.0528 91.5187 27.5913 90.9938 27.2781C90.4689 26.9649 89.8631 26.814 89.2526 26.8444L81.5083 27.1964C80.8711 27.2363 80.2372 27.0783 79.6932 26.7441C79.1492 26.4099 78.7218 25.9157 78.4694 25.3293C78.217 24.7428 78.152 24.0927 78.2833 23.4679C78.4145 22.8431 78.7356 22.2741 79.2027 21.8388L84.8595 16.5234C85.3062 16.1037 85.6184 15.561 85.7569 14.964C85.8953 14.3669 85.8538 13.7422 85.6374 13.1687L82.8988 5.90673C82.6741 5.31301 82.6369 4.66462 82.7925 4.04914C82.948 3.43367 83.2887 2.88074 83.7685 2.46505C84.2483 2.04935 84.8441 1.79092 85.4754 1.72465C86.1068 1.65837 86.7433 1.78744 87.2989 2.09444L94.1033 5.83633C94.6411 6.13215 95.2544 6.26194 95.8659 6.20931C96.4774 6.15668 97.0596 5.92399 97.5389 5.54064V5.54064Z" fill="#3EC1F3"/>
<path d="M61.2501 62.7179C58.786 60.6058 54.0515 59.2365 51.7458 60.6058C47.8525 62.9186 48.81 67.4102 48.81 67.4102C48.81 67.4102 42.4738 66.4246 42.5512 72.9157C42.5512 72.9157 37.4506 75.1474 39.6823 80.2481C39.6823 80.2481 35.2681 81.364 37.3661 86.799C39.0734 91.2309 43.0124 93.5506 45.4096 94.751C47.5216 95.807 50.7602 94.2828 49.6337 90.1748C49.6337 90.1748 52.0978 90.8789 53.5058 89.4708C55.449 87.5277 54.5619 83.8386 54.5619 83.8386C54.5619 83.8386 57.026 84.5426 58.786 83.1346C60.9333 81.4168 59.8421 78.2064 59.8421 78.2064C60.629 78.1003 61.3723 77.7822 61.9923 77.2861C62.6124 76.7901 63.0859 76.1348 63.3622 75.3903C64.7702 71.8702 59.4901 67.6461 59.4901 67.6461L61.2501 62.7179Z" fill="#A15842"/>
<path d="M39.4253 80.4485C42.5241 84.2102 45.9394 87.6997 49.6336 90.8786" stroke="#30242A" stroke-width="4" stroke-miterlimit="10" stroke-linecap="round"/>
<path d="M42.5934 72.884C46.2233 77.3222 50.366 81.3148 54.935 84.7785" stroke="#30242A" stroke-width="4" stroke-miterlimit="10" stroke-linecap="round"/>
<path d="M48.2256 67.7061C51.552 72.0768 55.5556 75.8879 60.0849 78.9951" stroke="#30242A" stroke-width="4" stroke-miterlimit="10" stroke-linecap="round"/>
<path d="M56.8499 64.6538C56.8499 64.6538 60.1483 67.4312 62.3554 69.582" stroke="#30242A" stroke-width="4" stroke-miterlimit="10" stroke-linecap="round"/>
<path d="M139.555 33.0503L137.696 35.0955L136.461 36.4542C135.676 39.1999 141.389 43.5754 149.334 46.2859C157.279 48.9964 164.47 49.0211 165.526 46.3669L165.379 44.5364L165.157 41.7802C162.172 42.4842 157.001 41.9175 151.46 40.0201C145.919 38.1228 141.481 35.444 139.555 33.0503Z" fill="#FFBE21"/>
<path d="M153.607 33.7612C149.454 32.3531 145.912 30.4734 143.589 28.6147L139.555 33.0501C141.481 35.4438 145.93 38.1402 151.467 40.0305C157.004 41.9208 162.179 42.4946 165.164 41.7905L164.682 35.8063C161.707 35.8592 157.761 35.1762 153.607 33.7612Z" fill="#FF7235"/>
<path d="M147.905 23.8699L143.589 28.615C145.912 30.4736 149.454 32.3463 153.607 33.7614C157.761 35.1765 161.704 35.8735 164.682 35.8101L164.164 29.4141C158.417 28.7199 152.879 26.8314 147.905 23.8699V23.8699Z" fill="#FFBE21"/>
<path d="M157.884 21.223C156.004 20.5873 154.171 19.8192 152.4 18.9243L147.905 23.8525C152.879 26.814 158.417 28.7025 164.164 29.3967L163.626 22.7366C161.679 22.3665 159.76 21.8607 157.884 21.223V21.223Z" fill="#FF7235"/>
<path d="M163.626 22.7541L162.425 7.89917L152.4 18.9242C154.172 19.8191 156.004 20.5872 157.884 21.2228C159.76 21.8665 161.679 22.3782 163.626 22.7541V22.7541Z" fill="#FFBE21"/>
<path d="M163.27 10.842C166.264 10.842 168.691 8.41491 168.691 5.42098C168.691 2.42705 166.264 0 163.27 0C160.276 0 157.849 2.42705 157.849 5.42098C157.849 8.41491 160.276 10.842 163.27 10.842Z" fill="#FF7235"/>
</svg>
