<svg width="225" height="248" viewBox="0 0 225 248" fill="none" xmlns="http://www.w3.org/2000/svg">
<path d="M209.211 45.7268H15.7244C7.04004 45.7268 0 52.7668 0 61.4512V210.585C0 219.269 7.04004 226.309 15.7244 226.309H209.211C217.896 226.309 224.936 219.269 224.936 210.585V61.4512C224.936 52.7668 217.896 45.7268 209.211 45.7268Z" fill="#F5EBDD"/>
<path d="M208.075 47.1164C212.195 47.1164 216.146 48.7514 219.059 51.6618C221.972 54.5721 223.609 58.5194 223.609 62.6352V209.818C223.609 213.934 221.972 217.881 219.059 220.792C216.146 223.702 212.195 225.337 208.075 225.337H16.9254C12.8054 225.337 8.85422 223.702 5.94095 220.792C3.02769 217.881 1.39104 213.934 1.39104 209.818V62.6352C1.39104 58.5194 3.02769 54.5721 5.94095 51.6618C8.85422 48.7514 12.8054 47.1164 16.9254 47.1164H208.075ZM208.075 45.7268H16.9254C12.4379 45.7314 8.13556 47.5143 4.96243 50.6842C1.78929 53.8542 0.00460303 58.1522 0 62.6352V209.818C0.00460303 214.301 1.78929 218.599 4.96243 221.769C8.13556 224.939 12.4379 226.722 16.9254 226.727H208.075C212.562 226.722 216.864 224.939 220.038 221.769C223.211 218.599 224.995 214.301 225 209.818V62.6352C224.995 58.1522 223.211 53.8542 220.038 50.6842C216.864 47.5143 212.562 45.7314 208.075 45.7268V45.7268Z" fill="white"/>
<path d="M153.271 121.183C153.271 121.183 145.53 121.606 139.758 118.394C134.29 115.35 133.409 110.583 135.316 101.148C135.316 101.148 131.898 99.1196 132.24 97.0908C132.462 95.7552 136.341 94.3857 136.341 94.3857C136.826 91.8091 137.441 87.9137 138.439 83.9304C140.936 84.416 143.472 84.6741 146.016 84.7014C153.644 93.1921 161.972 93.7094 161.972 93.7094C163.178 91.9266 164.814 90.4692 166.733 89.4691L178.11 93.9562C178.218 94.3199 178.307 94.689 178.376 95.062C179.958 103.938 168.807 107.235 168.807 107.235C171.056 115.736 178.376 119.07 183.872 120.378L183.407 124.602H152.697L153.271 121.183Z" fill="#EAA58B"/>
<path d="M79.7161 188.51C53.0595 180.733 51.3508 118.516 51.3508 118.516L65.2566 100.811C65.2566 100.811 62.6286 88.0832 65.3626 85.7162C68.6639 82.8589 72.823 91.8027 77.3239 102.961C82.0537 114.685 90.888 149.165 91.5715 151.532C91.5715 151.532 98.2014 148.448 106.058 144.863L107.172 148.488L117.309 182.299C106.195 186.799 90.4437 191.642 79.7161 188.51Z" fill="#EAA58B"/>
<path d="M168.807 107.235C168.807 107.235 179.958 103.938 178.376 95.062C178.307 94.6891 178.218 94.32 178.11 93.9563L186.397 97.2126C186.397 97.4459 186.359 97.6657 186.342 97.8889L183.871 120.378C178.366 119.07 171.056 115.736 168.807 107.235Z" fill="#A15842"/>
<path d="M161.972 93.7097C161.972 93.7097 153.644 93.1923 146.016 84.7016C143.472 84.6743 140.936 84.4163 138.439 83.9307C138.863 82.24 139.359 80.5324 139.946 78.8992L166.733 89.4694C164.814 90.4695 163.178 91.9268 161.972 93.7097V93.7097Z" fill="#A15842"/>
<path d="M178.11 93.9567L166.733 89.4696C171.432 87.1094 176.589 88.8305 178.11 93.9567Z" fill="#30242A"/>
<path d="M166.733 89.4693L139.946 78.8991C140.879 76.2989 142.041 73.8947 143.518 72.0687C149.239 64.9915 163.285 59.8552 175.683 68.8192C187.621 77.4519 186.893 91.1702 186.397 97.2229L178.11 93.9531C176.589 88.8303 171.432 87.1091 166.733 89.4693Z" fill="#30242A"/>
<path d="M134.8 139.48L135.613 132.522C145.025 129.806 151.826 129.674 151.826 129.674L152.68 124.602H183.407L182.925 128.998C185.97 128.989 189.009 129.246 192.009 129.766L187.709 139.48H134.8Z" fill="#4756DF"/>
<path d="M178.766 159.768H132.424L133.61 149.624H183.243L178.766 159.768Z" fill="#4756DF"/>
<path d="M174.285 169.913L169.808 180.057H130.124L130.531 176.216L130.497 176.233L131.238 169.913H174.285Z" fill="#4756DF"/>
<path d="M162.314 195.49C162.314 195.49 140.042 196.957 128.139 198.871L129.055 190.201H164.73L162.314 195.49Z" fill="#4756DF"/>
<path d="M133.61 149.624L134.8 139.48H187.72L183.243 149.624H133.61Z" fill="#FFB494"/>
<path d="M178.766 159.769L174.286 169.913H131.239L132.424 159.769H178.766Z" fill="#FFB494"/>
<path d="M168.807 181.288L164.73 190.201H129.055L130.124 180.057H169.388L168.807 181.288Z" fill="#FFB494"/>
<path d="M106.082 144.849C109.965 143.077 114.144 141.17 117.968 139.48C121.321 137.985 124.403 136.633 126.772 135.638C129.654 134.426 132.606 133.385 135.613 132.521L134.8 139.48L133.61 149.624L132.424 159.768L131.239 169.912L130.497 176.232C130.155 176.408 127.144 178.014 122.582 180.056C121.065 180.733 119.376 181.463 117.562 182.2L117.316 182.298L107.172 148.484L106.058 144.859L106.082 144.849Z" fill="#4756DF"/>
<path d="M164.73 190.201L168.807 181.288L169.388 180.057H169.808L168.913 182.086L202.217 194.069C196.605 205.127 190.255 214.615 185.553 219.159C169.149 235.052 126.191 225.151 126.191 225.151C126.191 225.151 121.304 228.965 114.811 230.318C103.191 252.973 96.8002 245.101 96.8002 245.101C96.8002 245.101 92.6992 249.497 89.6235 244.763C83.4719 245.101 83.8137 241.382 89.2817 228.532C83.1302 235.972 77.006 236.09 76.8762 234.037C76.5344 228.627 91.9132 210.706 106.028 204.863C114.517 201.349 128.139 198.871 128.139 198.871C140.042 196.974 162.314 195.49 162.314 195.49L164.73 190.201Z" fill="#EAA58B"/>
<path d="M192.009 129.766C198.348 130.841 206.478 133.394 211.174 139.48C213.262 142.185 214.674 145.567 214.933 149.841C215.709 162.153 209.612 179.475 202.206 194.07L168.913 182.086L192.009 129.766Z" fill="#4756DF"/>
<path d="M158.999 125.062L158.315 131.027" stroke="#30242A" stroke-width="4" stroke-linecap="round" stroke-linejoin="round"/>
<path d="M164.809 125.062L164.125 131.027" stroke="#30242A" stroke-width="4" stroke-linecap="round" stroke-linejoin="round"/>
<path d="M153.251 121.897C155.483 121.732 157.665 121.159 159.686 120.206" stroke="#A15842" stroke-width="4" stroke-miterlimit="10" stroke-linecap="round"/>
<path d="M88.5435 228.364C89.8593 225.476 91.3664 222.345 92.7231 219.971" stroke="#A15842" stroke-width="4" stroke-miterlimit="10" stroke-linecap="round"/>
<path d="M99.1412 223.339C94.8728 230.757 91.5749 239.109 89.5722 244.746" stroke="#A15842" stroke-width="4" stroke-miterlimit="10" stroke-linecap="round"/>
<path d="M106.714 227.734C103.639 233.317 100.143 240.053 97.6205 245.071" stroke="#A15842" stroke-width="4" stroke-miterlimit="10" stroke-linecap="round"/>
<path d="M130.087 176.091L131.32 163.489" stroke="#30242A" stroke-width="4" stroke-linecap="round" stroke-linejoin="round"/>
<path d="M92.3438 151.396L94.6472 160.323" stroke="#A15842" stroke-width="4" stroke-miterlimit="10" stroke-linecap="round"/>
<path d="M183.065 128.322H178.824" stroke="#30242A" stroke-width="4" stroke-linecap="round" stroke-linejoin="round"/>
<path d="M151.098 129.708L150.455 133.515" stroke="#30242A" stroke-width="4" stroke-linecap="round" stroke-linejoin="round"/>
<path d="M143.757 71.2678L186.818 87.4985" stroke="#4756DF" stroke-width="4" stroke-miterlimit="10" stroke-linecap="round"/>
<path d="M162.895 194.688L172.225 194.137" stroke="#A15842" stroke-width="4" stroke-miterlimit="10" stroke-linecap="round"/>
<path d="M162.553 195.026L175.406 166.869" stroke="#30242A" stroke-width="4" stroke-linecap="round" stroke-linejoin="round"/>
<path d="M64.0844 97.8557C64.8705 100.923 65.9709 104.957 67.0713 108.034C67.0713 108.034 61.2616 118.178 67.4131 130.013" stroke="#A15842" stroke-width="4" stroke-miterlimit="10" stroke-linecap="round"/>
<path d="M50.3563 197.897H65.1849C65.2864 197.897 65.3837 197.857 65.4555 197.786C65.5273 197.715 65.5676 197.619 65.5676 197.518V186.766C65.5676 186.665 65.5273 186.569 65.4555 186.498C65.3837 186.427 65.2864 186.387 65.1849 186.387H50.3563C48.8154 186.387 47.3377 186.993 46.2482 188.071C45.1586 189.149 44.5465 190.611 44.5465 192.135C44.5447 192.891 44.6937 193.64 44.9849 194.339C45.276 195.038 45.7037 195.674 46.2433 196.209C46.783 196.744 47.4241 197.169 48.1298 197.458C48.8356 197.748 49.5922 197.897 50.3563 197.897V197.897Z" stroke="#A15842" stroke-width="8" stroke-miterlimit="10"/>
<path d="M69.614 184.635C81.8521 184.635 87.5115 174.985 87.5115 174.985L79.2821 210.398H59.9459L51.7199 174.985C53.6298 177.963 56.2745 180.412 59.405 182.101C62.5355 183.789 66.0487 184.661 69.614 184.635V184.635Z" fill="#FF7235"/>
<path d="M69.614 184.635C66.0487 184.661 62.5355 183.789 59.405 182.101C56.2745 180.412 53.6298 177.963 51.7199 174.985H87.5115C87.5115 174.985 81.8521 184.635 69.614 184.635Z" fill="#A15842"/>
<path d="M166.521 99.9185L171.647 96.199" stroke="#A15842" stroke-width="4" stroke-miterlimit="10" stroke-linecap="round"/>
<path d="M142.366 95.7453C141.583 95.7453 140.948 95.117 140.948 94.342C140.948 93.567 141.583 92.9387 142.366 92.9387C143.149 92.9387 143.784 93.567 143.784 94.342C143.784 95.117 143.149 95.7453 142.366 95.7453Z" fill="#30242A"/>
<path d="M195.727 100.344L130.606 75.9138" stroke="#30242A" stroke-width="4" stroke-linecap="round" stroke-linejoin="round"/>
<path d="M143.729 103.898C143.388 104.574 141.484 106.129 139.646 105.071" stroke="#A15842" stroke-width="4" stroke-miterlimit="10" stroke-linecap="round"/>
<path d="M52.4512 130.37C53.2782 129.545 53.9139 128.152 53.743 125.954C53.743 125.954 56.8188 127.645 58.8693 125.954C61.5623 123.733 60.578 120.544 60.578 120.544C60.578 120.544 63.6538 121.559 65.0208 119.192C66.504 116.625 64.679 113.105 64.679 113.105C64.679 113.105 67.1362 113.443 67.7548 111.076C68.5408 108.08 66.897 105.355 65.1677 103.384" stroke="#A15842" stroke-width="8" stroke-miterlimit="10" stroke-linecap="round"/>
<path d="M106.071 67.0358L57.5903 48.8144C54.2803 47.5703 52.6162 43.9068 53.8736 40.6317L67.1963 5.93015C68.4537 2.65507 72.1563 1.00862 75.4664 2.2527L123.947 20.4742C127.257 21.7182 128.921 25.3818 127.664 28.6568L114.341 63.3584C113.084 66.6335 109.381 68.2799 106.071 67.0358Z" fill="#30242A"/>
<path d="M48.8681 150.761C48.332 152.158 46.753 152.86 45.3415 152.33C43.9299 151.799 43.2203 150.237 43.7565 148.84L79.1081 56.7599C79.6443 55.3632 81.2233 54.6611 82.6348 55.1917C84.0464 55.7222 84.756 57.2845 84.2198 58.6811L48.8681 150.761Z" fill="#30242A"/>
<path d="M85.0372 23.8774C86.6081 23.2108 88.3821 23.1882 89.9699 23.8146C91.5576 24.4409 92.8293 25.665 93.5058 27.2182L94.2508 28.9359L95.9869 28.1954C97.5519 27.5533 99.3095 27.5466 100.879 28.1769C102.449 28.8073 103.705 30.0239 104.376 31.5635C105.046 33.1031 105.076 34.8419 104.461 36.4037C103.845 37.9655 102.633 39.2246 101.086 39.9085L99.3497 40.6491L87.5149 45.6941L82.4125 33.981L81.6675 32.2666C81.3307 31.497 81.1508 30.6692 81.1379 29.8307C81.1251 28.9922 81.2796 28.1594 81.5926 27.38C81.9057 26.6007 82.3711 25.8902 82.9621 25.2891C83.5532 24.688 84.2584 24.2083 85.0372 23.8774V23.8774Z" fill="#FFB494"/>
<path d="M55.6944 97.2535C52.5127 99.1437 53.1962 102.806 53.1962 102.806C53.1962 102.806 46.7952 101.937 46.9831 108.412C46.9831 108.412 41.8808 110.732 44.2218 115.78C44.2218 115.78 40.712 116.686 42.4652 122.235C44.1739 127.645 47.6701 131.057 49.9837 131.365C51.2072 131.527 54.0847 130.35 53.743 125.955C53.743 125.955 56.8187 127.645 58.8692 125.955C61.5622 123.733 60.578 120.544 60.578 120.544C60.578 120.544 63.6538 121.559 65.0208 119.192C66.504 116.625 64.679 113.105 64.679 113.105C64.679 113.105 67.1362 113.444 67.7548 111.077C69.0671 106.082 63.623 101.842 62.2867 100.594L63.312 97.8892C63.312 97.8892 58.8692 95.3666 55.6944 97.2535Z" fill="#EAA58B"/>
<path d="M65.8718 114.326C61.993 112.067 56.1149 107.901 52.8135 102.917" stroke="#A15842" stroke-width="4" stroke-miterlimit="10" stroke-linecap="round"/>
<path d="M61.3676 121.366C55.7337 118.136 50.7721 113.876 46.7475 108.811" stroke="#A15842" stroke-width="4" stroke-miterlimit="10" stroke-linecap="round"/>
<path d="M53.5347 126.384C50.8007 124.356 47.0414 120.636 43.8699 116.359" stroke="#A15842" stroke-width="4" stroke-miterlimit="10" stroke-linecap="round"/>
</svg>
